<svg width="12" height="12" viewBox="0 0 12 12" fill="none" xmlns="http://www.w3.org/2000/svg">
<path d="M12 8.94667V11.304C12.0001 11.4728 11.9361 11.6353 11.8211 11.7588C11.706 11.8823 11.5484 11.9575 11.38 11.9693C11.0887 11.9893 10.8507 12 10.6667 12C4.77533 12 0 7.22467 0 1.33333C0 1.14933 0.01 0.911334 0.0306667 0.62C0.0424816 0.451629 0.117721 0.294007 0.241202 0.178939C0.364684 0.0638712 0.527215 -7.62887e-05 0.696 1.71053e-07H3.05333C3.13603 -8.35563e-05 3.2158 0.0305727 3.27715 0.0860136C3.33851 0.141455 3.37706 0.217722 3.38533 0.3C3.40067 0.453334 3.41467 0.575333 3.428 0.668C3.56049 1.59262 3.832 2.49189 4.23333 3.33533C4.29667 3.46867 4.25533 3.628 4.13533 3.71333L2.69667 4.74133C3.5763 6.79097 5.2097 8.42436 7.25933 9.304L8.286 7.868C8.32796 7.80933 8.38919 7.76725 8.459 7.7491C8.52881 7.73095 8.60277 7.73787 8.668 7.76867C9.51135 8.16924 10.4104 8.44008 11.3347 8.572C11.4273 8.58533 11.5493 8.6 11.7013 8.61467C11.7835 8.62309 11.8596 8.66171 11.9149 8.72305C11.9702 8.78439 12.0008 8.86408 12.0007 8.94667H12Z" fill="white"/>
</svg>
