<svg width="14" height="12" viewBox="0 0 14 12" fill="none" xmlns="http://www.w3.org/2000/svg">
<path d="M0.99998 0H13C13.1768 0 13.3464 0.0702379 13.4714 0.195262C13.5964 0.320286 13.6666 0.489856 13.6666 0.666667V11.3333C13.6666 11.5101 13.5964 11.6797 13.4714 11.8047C13.3464 11.9298 13.1768 12 13 12H0.99998C0.823169 12 0.653599 11.9298 0.528575 11.8047C0.403551 11.6797 0.333313 11.5101 0.333313 11.3333V0.666667C0.333313 0.489856 0.403551 0.320286 0.528575 0.195262C0.653599 0.0702379 0.823169 0 0.99998 0ZM7.03998 5.78867L2.76531 2.15867L1.90198 3.17467L7.04865 7.54467L12.1026 3.17133L11.2306 2.16267L7.04065 5.78867H7.03998Z" fill="white"/>
</svg>
